  <svg width="760" height="200" viewBox="0 0 760 200" fill="none" xmlns="http://www.w3.org/2000/svg">
  <path fill-rule="evenodd" clip-rule="evenodd" d="M100 200C155.228 200 200 155.228 200 100C200 44.7715 155.228 0 100 0C44.7715 0 0 44.7715 0 100C0 155.228 44.7715 200 100 200ZM100 25C93.3726 25 88 30.3726 88 37V163C88 169.627 93.3726 175 100 175C106.627 175 112 169.627 112 163V37C112 30.3726 106.627 25 100 25ZM136 80C136 73.3726 141.373 68 148 68C154.627 68 160 73.3726 160 80V117C160 123.627 154.627 129 148 129C141.373 129 136 123.627 136 117V80ZM52 59C45.3726 59 40 64.3726 40 71V129C40 135.627 45.3726 141 52 141C58.6274 141 64 135.627 64 129V71C64 64.3726 58.6274 59 52 59Z" fill="#1B5045"/>
  <path d="M254.816 131.5V63.82H285.728C293.28 63.82 299.104 65.644 303.2 69.292C307.296 72.94 309.344 78.028 309.344 84.556C309.344 89.612 308.032 93.836 305.408 97.228C302.848 100.556 299.168 102.828 294.368 104.044C297.76 105.068 300.544 107.532 302.72 111.436L313.664 131.5H297.248L285.536 109.9C284.576 108.172 283.392 106.988 281.984 106.348C280.576 105.644 278.912 105.292 276.992 105.292H269.696V131.5H254.816ZM269.696 94.54H283.04C291.04 94.54 295.04 91.34 295.04 84.94C295.04 78.604 291.04 75.436 283.04 75.436H269.696V94.54ZM343.579 132.556C338.011 132.556 333.211 131.564 329.179 129.58C325.211 127.532 322.139 124.684 319.963 121.036C317.851 117.324 316.795 112.972 316.795 107.98C316.795 103.116 317.819 98.86 319.867 95.212C321.979 91.5 324.827 88.62 328.411 86.572C332.059 84.46 336.251 83.404 340.987 83.404C347.835 83.404 353.275 85.58 357.307 89.932C361.339 94.22 363.355 100.044 363.355 107.404V111.052H330.619C331.131 114.764 332.475 117.484 334.651 119.212C336.891 120.876 339.963 121.708 343.867 121.708C346.427 121.708 349.019 121.324 351.643 120.556C354.267 119.788 356.635 118.604 358.747 117.004L362.587 126.7C360.219 128.492 357.307 129.932 353.851 131.02C350.459 132.044 347.035 132.556 343.579 132.556ZM341.563 93.004C338.491 93.004 335.995 93.932 334.075 95.788C332.219 97.644 331.067 100.236 330.619 103.564H351.355C350.971 96.524 347.707 93.004 341.563 93.004ZM394.642 132.556C381.394 132.556 374.77 126.124 374.77 113.26V95.212H365.841V84.364H374.77V70.54H389.266V84.364H403.186V95.212H389.266V112.684C389.266 115.372 389.874 117.388 391.09 118.732C392.37 120.076 394.386 120.748 397.138 120.748C397.97 120.748 398.834 120.652 399.73 120.46C400.69 120.268 401.714 120.012 402.802 119.692L404.914 130.252C403.57 130.956 401.97 131.5 400.114 131.884C398.258 132.332 396.434 132.556 394.642 132.556ZM410.318 131.5V84.364H424.526V92.524C426.766 87.02 431.566 83.98 438.926 83.404L443.15 83.116L444.014 95.308L435.854 96.172C428.686 96.876 425.102 100.524 425.102 107.116V131.5H410.318ZM471.693 132.556C466.637 132.556 462.221 131.564 458.445 129.58C454.733 127.532 451.853 124.684 449.805 121.036C447.757 117.324 446.733 112.94 446.733 107.884C446.733 102.892 447.757 98.572 449.805 94.924C451.853 91.212 454.733 88.364 458.445 86.38C462.221 84.396 466.637 83.404 471.693 83.404C476.749 83.404 481.133 84.396 484.845 86.38C488.621 88.364 491.533 91.212 493.581 94.924C495.693 98.572 496.749 102.892 496.749 107.884C496.749 112.94 495.693 117.324 493.581 121.036C491.533 124.684 488.621 127.532 484.845 129.58C481.133 131.564 476.749 132.556 471.693 132.556ZM471.693 121.708C474.765 121.708 477.261 120.588 479.181 118.348C481.165 116.108 482.157 112.62 482.157 107.884C482.157 103.212 481.165 99.788 479.181 97.612C477.261 95.372 474.765 94.252 471.693 94.252C468.621 94.252 466.125 95.372 464.205 97.612C462.285 99.788 461.325 103.212 461.325 107.884C461.325 112.62 462.285 116.108 464.205 118.348C466.125 120.588 468.621 121.708 471.693 121.708ZM507.008 131.5V63.82H519.392L542.24 105.388L564.992 63.82H577.184V131.5H563.648V90.22L546.176 121.324H537.824L520.448 90.508V131.5H507.008ZM607.038 132.556C601.022 132.556 596.574 130.892 593.694 127.564C590.878 124.236 589.47 119.244 589.47 112.588V84.364H603.966V112.972C603.966 118.54 606.366 121.324 611.166 121.324C613.918 121.324 616.158 120.364 617.886 118.444C619.678 116.46 620.574 113.868 620.574 110.668V84.364H635.07V131.5H620.958V125.068C617.822 130.06 613.182 132.556 607.038 132.556ZM664.335 132.556C660.175 132.556 656.303 132.076 652.719 131.116C649.135 130.156 646.159 128.844 643.791 127.18L647.247 117.772C649.615 119.244 652.303 120.428 655.311 121.324C658.383 122.156 661.423 122.572 664.431 122.572C667.119 122.572 669.103 122.156 670.383 121.324C671.663 120.428 672.303 119.276 672.303 117.868C672.303 115.628 670.671 114.22 667.407 113.644L657.327 111.82C653.295 111.116 650.223 109.676 648.111 107.5C645.999 105.324 644.943 102.476 644.943 98.956C644.943 95.756 645.839 93.004 647.631 90.7C649.423 88.396 651.887 86.604 655.023 85.324C658.159 84.044 661.775 83.404 665.871 83.404C669.263 83.404 672.559 83.852 675.759 84.748C678.959 85.58 681.711 86.924 684.015 88.78L680.367 98.092C678.447 96.684 676.143 95.532 673.455 94.636C670.831 93.74 668.367 93.292 666.063 93.292C663.183 93.292 661.103 93.772 659.823 94.732C658.543 95.628 657.903 96.78 657.903 98.188C657.903 100.428 659.407 101.836 662.415 102.412L672.495 104.236C676.655 104.94 679.823 106.348 681.999 108.46C684.175 110.508 685.263 113.324 685.263 116.908C685.263 121.836 683.343 125.676 679.503 128.428C675.663 131.18 670.607 132.556 664.335 132.556ZM692.961 75.244V61.708H708.609V75.244H692.961ZM693.537 131.5V84.364H708.033V131.5H693.537ZM742.168 132.556C737.048 132.556 732.568 131.564 728.728 129.58C724.952 127.532 722.04 124.652 719.992 120.94C717.944 117.228 716.92 112.844 716.92 107.788C716.92 102.732 717.944 98.38 719.992 94.732C722.04 91.084 724.952 88.3 728.728 86.38C732.568 84.396 737.048 83.404 742.168 83.404C745.176 83.404 748.216 83.852 751.288 84.748C754.36 85.644 756.856 86.924 758.776 88.588L754.744 98.572C753.144 97.292 751.352 96.3 749.368 95.596C747.384 94.828 745.464 94.444 743.608 94.444C739.832 94.444 736.888 95.628 734.776 97.996C732.728 100.3 731.704 103.596 731.704 107.884C731.704 112.108 732.728 115.436 734.776 117.868C736.888 120.236 739.832 121.42 743.608 121.42C745.4 121.42 747.288 121.068 749.272 120.364C751.32 119.66 753.144 118.636 754.744 117.292L758.776 127.276C756.856 128.94 754.36 130.252 751.288 131.212C748.216 132.108 745.176 132.556 742.168 132.556Z" fill="#1B5045"/>
  </svg>
