<svg width="683" height="448" viewBox="0 0 683 448" fill="none" xmlns="http://www.w3.org/2000/svg">
<path d="M11 16H662V431H11V16Z" fill="#F3EFE0"/>
<path d="M22.1333 1.53513C14.9333 3.53513 3.33333 14.8685 1.46667 21.9351C0.4 25.6685 0 86.0685 0 224.068C0 400.335 0.266667 421.402 2.13333 427.002C4.93333 435.135 14.9333 444.335 23.2 446.468C27.6 447.535 114.267 447.935 341.733 447.935C690.667 447.935 662.8 448.735 673.067 438.468C683.333 427.935 682.667 443.935 682.667 223.935C682.667 3.93512 683.333 19.9351 673.067 9.40179C662.8 -0.864868 690.8 -0.0648804 340.8 0.0684814C129.467 0.201813 25.6 0.601807 22.1333 1.53513ZM658.8 23.8018L662.667 27.6685V223.935V420.202L658.8 424.068L654.933 427.935H619.467H584.133L580.133 414.868C578 407.802 572.533 389.668 568 374.602C563.467 359.668 558.667 345.135 557.333 342.468C553.733 335.668 542.533 325.935 535.067 323.402C530.4 321.802 523.6 321.268 507.733 321.268C488.4 321.268 486.4 321.535 484 323.935C480.4 327.535 480.533 334.735 484.133 338.068C486.533 340.202 489.733 340.735 508 341.268C531.2 341.935 534 342.868 538.933 351.535C540.8 354.735 562.667 424.468 562.667 427.268C562.667 427.668 463.067 427.935 341.333 427.935C219.6 427.935 120 427.668 120 427.268C120 424.468 141.867 354.735 143.733 351.535C144.933 349.268 147.733 346.335 149.733 344.735C153.467 341.935 153.6 341.935 302.933 341.268L452.267 340.602L455.6 336.735C459.2 332.602 458.933 327.935 455.067 323.535C453.067 321.402 444.133 321.268 303.333 321.268C170.133 321.268 153.067 321.535 147.6 323.402C140.133 325.935 128.933 335.668 125.333 342.468C124 345.135 119.2 359.668 114.667 374.602C110.133 389.668 104.667 407.802 102.533 414.868L98.5333 427.935H63.2H27.7333L23.8667 424.068L20 420.202V223.935V27.6685L23.8667 23.8018L27.7333 19.9351H341.333H654.933L658.8 23.8018Z" fill="#1D1D1D"/>
<path fill-rule="evenodd" clip-rule="evenodd" d="M623.068 276.433L622.801 169.366L622.401 62.4327L502.001 62.0327C428.001 61.8994 381.734 62.1661 382.001 62.9661C382.134 63.6327 402.268 83.0994 426.401 106.299L470.401 148.433H521.068C577.734 148.433 579.334 148.699 585.868 157.899C589.068 162.299 589.068 162.966 589.068 191.099C589.068 218.966 588.934 219.899 586.001 224.166C582.001 229.633 576.934 232.299 567.734 233.499L560.401 234.433L582.268 255.366L604.134 276.433H613.601H623.068Z" fill="#EF6262"/>
<path d="M622.801 169.366L623.801 169.364L623.801 169.362L622.801 169.366ZM623.068 276.433V277.433H624.07L624.068 276.43L623.068 276.433ZM622.401 62.4327L623.401 62.429L623.397 61.436L622.404 61.4327L622.401 62.4327ZM502.001 62.0327L502.004 61.0327L502.003 61.0327L502.001 62.0327ZM382.001 62.9661L382.982 62.77L382.97 62.7089L382.95 62.6498L382.001 62.9661ZM426.401 106.299L425.708 107.02L425.71 107.022L426.401 106.299ZM470.401 148.433L469.71 149.155L470 149.433H470.401V148.433ZM585.868 157.899L585.052 158.478L585.059 158.488L585.868 157.899ZM586.001 224.166L586.808 224.757L586.817 224.745L586.825 224.733L586.001 224.166ZM567.734 233.499L567.861 234.491L567.864 234.491L567.734 233.499ZM560.401 234.433L560.275 233.441L558.195 233.705L559.71 235.155L560.401 234.433ZM582.268 255.366L582.962 254.646L582.959 254.644L582.268 255.366ZM604.134 276.433L603.441 277.153L603.731 277.433H604.134V276.433ZM621.801 169.369L622.068 276.435L624.068 276.43L623.801 169.364L621.801 169.369ZM621.401 62.4365L621.801 169.37L623.801 169.362L623.401 62.429L621.401 62.4365ZM501.998 63.0327L622.398 63.4327L622.404 61.4327L502.004 61.0327L501.998 63.0327ZM382.95 62.6498C383.047 62.9412 382.995 63.2316 382.868 63.4492C382.764 63.6298 382.63 63.7262 382.575 63.7627C382.51 63.8054 382.457 63.8281 382.436 63.8369C382.411 63.8471 382.395 63.8518 382.392 63.8525C382.389 63.8535 382.405 63.8487 382.45 63.8404C382.493 63.8325 382.55 63.8234 382.625 63.8134C382.929 63.7726 383.419 63.7305 384.106 63.689C385.472 63.6065 387.532 63.5313 390.257 63.4637C395.704 63.3285 403.768 63.2244 414.158 63.1494C434.937 62.9994 465 62.9661 501.999 63.0327L502.003 61.0327C465.002 60.9661 434.932 60.9994 414.144 61.1494C403.751 61.2244 395.673 61.3287 390.208 61.4643C387.477 61.5321 385.388 61.6079 383.985 61.6926C383.288 61.7347 382.739 61.7802 382.359 61.8311C382.178 61.8554 381.989 61.8867 381.831 61.9328C381.766 61.9519 381.618 61.9974 381.471 62.0952C381.397 62.144 381.25 62.2527 381.138 62.4456C381.005 62.6756 380.951 62.9784 381.052 63.2823L382.95 62.6498ZM427.094 105.579C415.028 93.9786 403.963 83.3138 395.899 75.4661C391.866 71.5418 388.586 68.3247 386.308 66.0482C385.168 64.9092 384.283 64.0106 383.682 63.3785C383.38 63.0612 383.157 62.8194 383.011 62.6517C382.937 62.5664 382.894 62.5124 382.872 62.4839C382.861 62.4688 382.866 62.4742 382.878 62.4945C382.885 62.5049 382.899 62.5293 382.915 62.5645C382.929 62.5935 382.961 62.6672 382.982 62.77L381.021 63.1622C381.059 63.3551 381.147 63.497 381.166 63.5276C381.202 63.5869 381.24 63.6405 381.271 63.6825C381.335 63.7681 381.415 63.8642 381.502 63.9637C381.677 64.1657 381.925 64.4332 382.233 64.7573C382.852 65.408 383.751 66.3209 384.894 67.4631C387.183 69.7492 390.47 72.9737 394.504 76.8994C402.573 84.7517 413.641 95.4202 425.708 107.02L427.094 105.579ZM471.093 147.71L427.093 105.577L425.71 107.022L469.71 149.155L471.093 147.71ZM521.068 147.433H470.401V149.433H521.068V147.433ZM586.683 157.32C585.053 155.025 583.636 153.142 581.515 151.71C579.385 150.273 576.635 149.346 572.413 148.727C564.021 147.496 549.355 147.433 521.068 147.433V149.433C549.447 149.433 563.915 149.502 572.123 150.706C576.201 151.303 578.617 152.168 580.396 153.368C582.183 154.574 583.416 156.174 585.053 158.478L586.683 157.32ZM590.068 191.099C590.068 177.065 590.069 169.799 589.663 165.505C589.459 163.341 589.146 161.86 588.646 160.614C588.145 159.368 587.478 158.414 586.677 157.311L585.059 158.488C585.857 159.585 586.39 160.364 586.79 161.359C587.19 162.355 587.477 163.624 587.672 165.693C588.067 169.866 588.068 177 588.068 191.099H590.068ZM586.825 224.733C587.563 223.659 588.182 222.716 588.653 221.472C589.122 220.232 589.426 218.746 589.63 216.576C590.036 212.267 590.068 205.005 590.068 191.099H588.068C588.068 205.06 588.033 212.198 587.639 216.389C587.443 218.469 587.163 219.758 586.783 220.764C586.403 221.766 585.906 222.539 585.177 223.6L586.825 224.733ZM567.864 234.491C572.529 233.883 576.219 232.894 579.275 231.322C582.346 229.743 584.728 227.6 586.808 224.757L585.194 223.576C583.275 226.199 581.123 228.123 578.36 229.543C575.583 230.972 572.14 231.916 567.605 232.508L567.864 234.491ZM560.527 235.425L567.861 234.491L567.608 232.507L560.275 233.441L560.527 235.425ZM582.959 254.644L561.093 233.71L559.71 235.155L581.576 256.088L582.959 254.644ZM604.828 275.713L582.962 254.646L581.574 256.086L603.441 277.153L604.828 275.713ZM613.601 275.433H604.134V277.433H613.601V275.433ZM623.068 275.433H613.601V277.433H623.068V275.433Z" fill="#EF6262"/>
<path fill-rule="evenodd" clip-rule="evenodd" d="M435.474 143.133C431.74 139.533 411.474 120.067 390.273 99.8L351.607 63H299.873C255.607 63 248.14 63.2667 249.073 64.8667C249.607 65.9333 263.607 85.4 280.14 108.2L310.14 149.533L376.14 149.667H442.14L435.474 143.133ZM376.592 275.243L377.901 277.549C378.035 277.46 378.066 277.366 378.007 277.267C377.88 277.076 377.384 276.366 376.592 275.243ZM576.807 278.867L554.14 256.867L531.474 235H452.54C409.074 235 373.474 235.267 373.474 235.667C373.474 236.067 380.407 245.933 388.94 257.667L404.407 279L490.674 278.867H576.807Z" fill="#F3AA60"/>
<path d="M390.273 99.8L391.656 98.3543L391.652 98.3512L390.273 99.8ZM435.474 143.133L436.873 141.705L436.868 141.699L436.862 141.694L435.474 143.133ZM351.607 63L352.986 61.5512L352.406 61H351.607V63ZM249.073 64.8667L250.862 63.9722L250.834 63.9146L250.801 63.8589L249.073 64.8667ZM280.14 108.2L278.521 109.374L278.522 109.375L280.14 108.2ZM310.14 149.533L308.522 150.708L309.119 151.531L310.136 151.533L310.14 149.533ZM376.14 149.667L376.136 151.667H376.14V149.667ZM442.14 149.667V151.667H447.038L443.54 148.238L442.14 149.667ZM376.592 275.243L378.226 274.091L374.853 276.231L376.592 275.243ZM377.901 277.549L376.162 278.536L377.221 280.402L379.008 279.215L377.901 277.549ZM378.007 277.267L379.722 276.238L379.697 276.197L379.671 276.157L378.007 277.267ZM554.14 256.867L555.533 255.432L555.529 255.427L554.14 256.867ZM576.807 278.867V280.867H581.739L578.2 277.432L576.807 278.867ZM531.474 235L532.862 233.561L532.281 233H531.474V235ZM388.94 257.667L390.559 256.493L390.558 256.49L388.94 257.667ZM404.407 279L402.788 280.174L403.388 281.002L404.41 281L404.407 279ZM490.674 278.867V276.867H490.67L490.674 278.867ZM388.891 101.246C410.09 121.511 430.355 140.976 434.085 144.573L436.862 141.694C433.126 138.091 412.857 118.622 391.656 98.3543L388.891 101.246ZM350.228 64.4487L388.895 101.249L391.652 98.3512L352.986 61.5512L350.228 64.4487ZM299.873 65H351.607V61H299.873V65ZM250.801 63.8589C250.882 63.9978 251.062 64.3751 250.979 64.8948C250.893 65.4376 250.583 65.7606 250.419 65.8912C250.208 66.0597 250.162 65.9846 250.781 65.8618C251.864 65.647 253.942 65.4658 257.597 65.332C264.835 65.067 277.726 65 299.873 65V61C277.754 61 264.779 61.0664 257.45 61.3347C253.821 61.4675 251.441 61.653 250.003 61.9382C249.362 62.0654 248.54 62.2737 247.926 62.763C247.561 63.054 247.143 63.5468 247.028 64.2693C246.918 64.9687 247.148 65.5355 247.346 65.8744L250.801 63.8589ZM281.759 107.026C273.494 95.6272 265.862 85.0635 260.232 77.2173C257.416 73.2936 255.103 70.0527 253.462 67.7278C252.64 66.5645 251.991 65.6359 251.532 64.9677C251.018 64.2193 250.85 63.9478 250.862 63.9722L247.285 65.7611C247.43 66.0522 247.816 66.6223 248.235 67.2318C248.708 67.9214 249.369 68.8667 250.194 70.0347C251.844 72.3723 254.164 75.6231 256.982 79.5494C262.618 87.4032 270.253 97.9728 278.521 109.374L281.759 107.026ZM311.759 148.359L281.759 107.025L278.522 109.375L308.522 150.708L311.759 148.359ZM376.144 147.667L310.144 147.533L310.136 151.533L376.136 151.667L376.144 147.667ZM442.14 147.667H376.14V151.667H442.14V147.667ZM434.074 144.562L440.74 151.095L443.54 148.238L436.873 141.705L434.074 144.562ZM374.853 276.231L376.162 278.536L379.64 276.561L378.331 274.256L374.853 276.231ZM376.292 278.296C376.078 277.939 375.917 277.358 376.147 276.727C376.338 276.204 376.693 275.951 376.794 275.883L379.008 279.215C379.244 279.058 379.681 278.713 379.906 278.096C380.17 277.371 379.995 276.693 379.722 276.238L376.292 278.296ZM374.958 276.396C375.758 277.531 376.234 278.214 376.343 278.376L379.671 276.157C379.526 275.939 379.01 275.202 378.226 274.091L374.958 276.396ZM552.747 258.302L575.414 280.302L578.2 277.432L555.533 255.432L552.747 258.302ZM530.085 236.439L552.752 258.306L555.529 255.427L532.862 233.561L530.085 236.439ZM452.54 237H531.474V233H452.54V237ZM375.474 235.667C375.474 236.656 374.798 237.173 374.646 237.282C374.428 237.438 374.233 237.51 374.173 237.531C374.09 237.561 374.025 237.577 373.995 237.584C373.961 237.592 373.937 237.597 373.928 237.599C373.907 237.602 373.938 237.596 374.06 237.586C374.285 237.566 374.652 237.544 375.174 237.521C376.209 237.477 377.751 237.434 379.756 237.393C383.76 237.312 389.559 237.242 396.723 237.183C411.049 237.067 430.81 237 452.54 237V233C430.804 233 411.031 233.067 396.691 233.183C389.522 233.242 383.704 233.313 379.675 233.394C377.663 233.435 376.084 233.478 375.002 233.525C374.466 233.548 374.026 233.573 373.708 233.601C373.559 233.614 373.385 233.632 373.226 233.661C373.162 233.672 373.004 233.701 372.825 233.765C372.749 233.792 372.54 233.87 372.314 234.032C372.154 234.147 371.474 234.671 371.474 235.667H375.474ZM390.558 256.49C386.295 250.63 382.435 245.239 379.643 241.267C378.246 239.279 377.122 237.654 376.35 236.507C375.962 235.93 375.673 235.489 375.486 235.188C375.39 235.034 375.335 234.94 375.31 234.894C375.296 234.868 375.307 234.887 375.328 234.934C375.338 234.957 375.363 235.016 375.389 235.1C375.404 235.15 375.474 235.37 375.474 235.667H371.474C371.474 235.976 371.546 236.213 371.568 236.285C371.601 236.39 371.636 236.476 371.66 236.529C371.707 236.638 371.758 236.736 371.797 236.807C371.878 236.955 371.98 237.126 372.091 237.303C372.315 237.664 372.635 238.151 373.031 238.739C373.825 239.921 374.968 241.571 376.371 243.567C379.178 247.561 383.052 252.97 387.323 258.843L390.558 256.49ZM406.026 277.826L390.559 256.493L387.321 258.841L402.788 280.174L406.026 277.826ZM490.67 276.867L404.404 277L404.41 281L490.677 280.867L490.67 276.867ZM576.807 276.867H490.674V280.867H576.807V276.867Z" fill="#F3AA60"/>
<path fill-rule="evenodd" clip-rule="evenodd" d="M184.056 56C184.19 56.18 184.327 56.3581 184.467 56.5332C187.133 59.8666 187.533 59.9999 202.867 59.9999H218.6L243.133 93.5999C247.73 99.9253 252.403 106.375 256.725 112.339C265.067 123.85 272.099 133.554 274.733 137.067L281.8 146.667L227.667 146.4L173.4 146L158.2 104.133C149.8 81.1999 143 61.8666 143 61.1999C143 60.5332 145.4 59.9999 148.333 59.9999C152.408 59.9999 155.531 58.384 157.332 56H184.056ZM374.2 274.267C373.667 273.467 366.6 263.467 358.467 252.267L343.8 232H274.2H204.733L212.733 254L220.733 276H297.933C359.4 276 375 275.6 374.2 274.267Z" fill="#1B5045"/>
<path d="M184.056 56L185.663 54.809L185.063 54H184.056V56ZM184.467 56.5332L186.028 55.2839L186.028 55.2838L184.467 56.5332ZM218.6 59.9999L220.215 58.8205L219.616 57.9999H218.6V59.9999ZM243.133 93.5999L244.751 92.4243L244.749 92.4205L243.133 93.5999ZM256.725 112.339L258.345 111.166L256.725 112.339ZM274.733 137.067L276.344 135.881L276.339 135.874L276.333 135.867L274.733 137.067ZM281.8 146.667L281.79 148.667L285.77 148.686L283.411 145.481L281.8 146.667ZM227.667 146.4L227.652 148.4L227.657 148.4L227.667 146.4ZM173.4 146L171.52 146.682L171.995 147.99L173.385 148L173.4 146ZM158.2 104.133L160.08 103.451L160.078 103.445L158.2 104.133ZM157.332 56V54H156.336L155.736 54.7944L157.332 56ZM358.467 252.267L356.846 253.439L356.848 253.442L358.467 252.267ZM374.2 274.267L375.915 273.238L375.891 273.197L375.864 273.157L374.2 274.267ZM343.8 232L345.42 230.827L344.821 230H343.8V232ZM204.733 232V230H201.878L202.854 232.683L204.733 232ZM212.733 254L210.854 254.683L212.733 254ZM220.733 276L218.854 276.683L219.332 278H220.733V276ZM182.449 57.191C182.597 57.3899 182.749 57.5876 182.905 57.7826L186.028 55.2838C185.904 55.1287 185.782 54.9701 185.663 54.809L182.449 57.191ZM182.905 57.7826C183.55 58.5895 184.228 59.4301 185.123 60.0904C186.076 60.7937 187.156 61.2157 188.541 61.4809C191.127 61.9762 195.311 61.9999 202.867 61.9999V57.9999C195.089 57.9999 191.406 57.9569 189.293 57.5523C188.328 57.3674 187.849 57.1311 187.498 56.8719C187.089 56.5697 186.716 56.1436 186.028 55.2839L182.905 57.7826ZM202.867 61.9999H218.6V57.9999H202.867V61.9999ZM216.985 61.1793L241.518 94.7793L244.749 92.4205L220.215 58.8205L216.985 61.1793ZM241.515 94.7756C246.111 101.1 250.784 107.548 255.106 113.513L258.345 111.166C254.023 105.202 249.348 98.7509 244.751 92.4243L241.515 94.7756ZM255.106 113.513C263.44 125.013 270.486 134.736 273.133 138.267L276.333 135.867C273.711 132.371 266.694 122.688 258.345 111.166L255.106 113.513ZM273.123 138.252L280.189 147.852L283.411 145.481L276.344 135.881L273.123 138.252ZM281.81 144.667L227.677 144.4L227.657 148.4L281.79 148.667L281.81 144.667ZM227.681 144.4L173.415 144L173.385 148L227.652 148.4L227.681 144.4ZM175.28 145.317L160.08 103.451L156.32 104.816L171.52 146.682L175.28 145.317ZM160.078 103.445C155.88 91.9847 152.083 81.4253 149.336 73.6503C147.962 69.7619 146.853 66.5749 146.088 64.3216C145.705 63.1934 145.411 62.3086 145.215 61.6902C145.116 61.379 145.046 61.1499 145.003 60.997C144.981 60.9188 144.971 60.8788 144.968 60.8667C144.949 60.7812 145 60.9582 145 61.1999H141C141 61.4833 141.065 61.7384 141.071 61.7666C141.094 61.8681 141.124 61.9773 141.154 62.083C141.214 62.2977 141.299 62.5747 141.402 62.9008C141.611 63.5569 141.914 64.471 142.3 65.6074C143.072 67.8833 144.188 71.0879 145.564 74.9828C148.317 82.7745 152.12 93.3484 156.322 104.821L160.078 103.445ZM145 61.1999C145 61.76 144.739 62.1374 144.588 62.3033C144.447 62.4575 144.335 62.5101 144.358 62.4977C144.402 62.4749 144.595 62.3931 145.004 62.3015C145.789 62.1256 146.969 61.9999 148.333 61.9999V57.9999C146.765 57.9999 145.278 58.1409 144.129 58.3983C143.571 58.5234 142.982 58.6999 142.483 58.9646C142.236 59.096 141.913 59.2996 141.63 59.6106C141.336 59.9333 141 60.4731 141 61.1999H145ZM148.333 61.9999C152.949 61.9999 156.699 60.1546 158.927 57.2056L155.736 54.7944C154.362 56.6134 151.867 57.9999 148.333 57.9999V61.9999ZM184.056 54H157.332V58H184.056V54ZM356.848 253.442C364.988 264.65 372.029 274.616 372.536 275.376L375.864 273.157C375.304 272.317 368.212 262.283 360.085 251.091L356.848 253.442ZM342.18 233.172L356.846 253.439L360.087 251.094L345.42 230.827L342.18 233.172ZM274.2 234H343.8V230H274.2V234ZM204.733 234H274.2V230H204.733V234ZM214.613 253.316L206.613 231.316L202.854 232.683L210.854 254.683L214.613 253.316ZM222.613 275.316L214.613 253.316L210.854 254.683L218.854 276.683L222.613 275.316ZM297.933 274H220.733V278H297.933V274ZM372.485 275.296C372.316 275.013 372.155 274.552 372.265 273.999C372.368 273.479 372.656 273.159 372.819 273.014C373.085 272.776 373.297 272.75 373.108 272.805C372.835 272.886 372.215 272.998 371.071 273.109C368.841 273.326 365.11 273.5 359.37 273.634C347.914 273.9 328.671 274 297.933 274V278C328.663 278 347.953 277.9 359.463 277.633C365.206 277.499 369.067 277.323 371.458 277.09C372.625 276.977 373.573 276.839 374.239 276.642C374.52 276.559 375.046 276.388 375.483 275.998C375.73 275.776 376.068 275.378 376.188 274.779C376.314 274.146 376.134 273.603 375.915 273.238L372.485 275.296Z" fill="#1B5045"/>
<path fill-rule="evenodd" clip-rule="evenodd" d="M151 146.267C151 145.733 144.333 126.533 136.067 103.733L121 62H92.0667H63V168.667V275.333H130.333C167.4 275.333 197.667 274.8 197.667 274.267C197.667 273.2 187.667 245.067 184.2 236.4L182.733 232.8L146.467 232.4L110.067 232L105.133 228.133C97 222 96.3333 218.933 96.3333 188.933C96.3333 163.6 96.4667 162.133 99.2667 158C105.667 148.667 107.667 148 130.467 147.6C141.8 147.333 151 146.8 151 146.267Z" fill="#1D5B79"/>
<path d="M136.067 103.733L134.186 104.412L134.186 104.415L136.067 103.733ZM121 62L122.881 61.3209L122.404 60H121V62ZM63 62V60H61V62H63ZM63 275.333H61V277.333H63V275.333ZM184.2 236.4L186.057 235.657L186.052 235.645L184.2 236.4ZM182.733 232.8L184.586 232.045L184.084 230.815L182.755 230.8L182.733 232.8ZM146.467 232.4L146.489 230.4H146.489L146.467 232.4ZM110.067 232L108.833 233.574L109.367 233.992L110.045 234L110.067 232ZM105.133 228.133L106.367 226.559L106.352 226.548L106.338 226.536L105.133 228.133ZM99.2667 158L97.6172 156.869L97.6108 156.878L99.2667 158ZM130.467 147.6L130.502 149.6L130.514 149.599L130.467 147.6ZM134.186 104.415C138.317 115.809 142.048 126.301 144.746 134.011C146.094 137.866 147.184 141.021 147.934 143.243C148.31 144.355 148.599 145.225 148.792 145.83C148.89 146.135 148.959 146.359 149.002 146.508C149.024 146.585 149.035 146.624 149.038 146.637C149.064 146.746 149 146.536 149 146.267H153C153 146.062 152.968 145.896 152.961 145.862C152.949 145.794 152.935 145.733 152.923 145.688C152.901 145.595 152.873 145.494 152.844 145.395C152.786 145.193 152.703 144.928 152.602 144.612C152.399 143.976 152.102 143.081 151.724 141.962C150.966 139.721 149.872 136.551 148.521 132.689C145.818 124.965 142.083 114.458 137.947 103.052L134.186 104.415ZM119.119 62.6791L134.186 104.412L137.948 103.054L122.881 61.3209L119.119 62.6791ZM92.0667 64H121V60H92.0667V64ZM63 64H92.0667V60H63V64ZM65 168.667V62H61V168.667H65ZM65 275.333V168.667H61V275.333H65ZM130.333 273.333H63V277.333H130.333V273.333ZM195.667 274.267C195.667 273.638 195.954 273.19 196.163 272.954C196.361 272.73 196.563 272.606 196.658 272.552C196.85 272.443 197.008 272.4 197.03 272.393C197.105 272.372 197.125 272.374 197.033 272.387C196.874 272.41 196.587 272.439 196.148 272.471C195.285 272.534 193.987 272.597 192.285 272.66C188.889 272.784 183.962 272.9 177.867 273C165.681 273.2 148.858 273.333 130.333 273.333V277.333C148.875 277.333 165.719 277.2 177.933 277C184.038 276.9 188.995 276.783 192.431 276.657C194.146 276.594 195.502 276.529 196.439 276.46C196.9 276.427 197.3 276.39 197.603 276.346C197.741 276.326 197.936 276.295 198.127 276.24C198.207 276.217 198.409 276.157 198.631 276.031C198.741 275.969 198.954 275.836 199.16 275.604C199.376 275.36 199.667 274.904 199.667 274.267H195.667ZM182.343 237.143C184.06 241.436 187.415 250.602 190.349 258.853C191.814 262.974 193.169 266.851 194.156 269.761C194.65 271.218 195.049 272.423 195.323 273.29C195.46 273.726 195.562 274.062 195.626 274.296C195.659 274.415 195.678 274.488 195.686 274.527C195.71 274.63 195.667 274.485 195.667 274.267H199.667C199.667 273.981 199.604 273.717 199.589 273.651C199.56 273.52 199.522 273.374 199.481 273.226C199.397 272.926 199.28 272.539 199.138 272.087C198.851 271.178 198.441 269.942 197.944 268.476C196.948 265.541 195.586 261.643 194.118 257.513C191.185 249.265 187.806 240.031 186.057 235.657L182.343 237.143ZM180.881 233.555L182.348 237.155L186.052 235.645L184.586 232.045L180.881 233.555ZM146.445 234.4L182.711 234.8L182.755 230.8L146.489 230.4L146.445 234.4ZM110.045 234L146.445 234.4L146.489 230.4L110.089 230L110.045 234ZM103.9 229.707L108.833 233.574L111.3 230.426L106.367 226.559L103.9 229.707ZM94.3333 188.933C94.3333 203.838 94.4884 212.369 95.7317 217.92C96.3714 220.777 97.316 222.946 98.7234 224.835C100.106 226.69 101.861 228.171 103.929 229.73L106.338 226.536C104.339 225.029 102.961 223.826 101.931 222.445C100.926 221.096 100.179 219.473 99.635 217.046C98.5116 212.031 98.3333 204.029 98.3333 188.933H94.3333ZM97.6108 156.878C96.8847 157.95 96.24 158.98 95.748 160.33C95.261 161.666 94.959 163.214 94.7589 165.328C94.3643 169.497 94.3333 176.319 94.3333 188.933H98.3333C98.3333 176.214 98.369 169.636 98.7411 165.705C98.9244 163.769 99.1807 162.592 99.5062 161.699C99.8267 160.82 100.249 160.116 100.923 159.122L97.6108 156.878ZM130.432 145.6C119.16 145.798 112.594 146.05 108.084 147.553C103.263 149.16 100.844 152.163 97.6172 156.869L100.916 159.131C104.089 154.504 105.871 152.507 109.349 151.347C113.14 150.084 118.974 149.802 130.502 149.6L130.432 145.6ZM149 146.267C149 145.512 149.413 145.038 149.605 144.858C149.802 144.673 149.985 144.584 150.037 144.56C150.154 144.504 150.209 144.499 150.113 144.522C149.952 144.561 149.639 144.616 149.139 144.678C148.161 144.799 146.705 144.921 144.858 145.037C141.177 145.268 136.072 145.468 130.42 145.601L130.514 149.599C136.194 149.466 141.356 149.265 145.109 149.029C146.979 148.912 148.531 148.784 149.632 148.647C150.171 148.58 150.666 148.504 151.052 148.41C151.23 148.367 151.493 148.296 151.751 148.174C151.873 148.116 152.109 147.994 152.342 147.775C152.569 147.562 153 147.054 153 146.267H149Z" fill="#1D5B79"/>
<mask id="path-11-inside-1_72_75" fill="white">
<path fill-rule="evenodd" clip-rule="evenodd" d="M59.1568 41.9333C54.4901 43.1333 47.5568 49.1333 45.6901 53.8C44.0901 57.6667 43.8234 76.4667 44.0901 170.733L44.0973 172.764C43.3729 178.741 43 184.827 43 191C43 197.542 43.4188 203.986 44.2311 210.308L44.4901 283L47.5568 287.4C49.2901 289.8 52.6234 292.733 54.8901 294.067C58.8901 296.2 76.0901 296.333 342.49 296.333C608.89 296.333 626.09 296.2 630.09 294.067C632.357 292.733 635.69 289.8 637.423 287.4L640.49 283L640.89 170.733C640.907 165.366 640.925 160.241 640.941 155.348C641.248 64.0671 641.284 53.4276 635.987 48.3438C635.289 47.6731 634.497 47.099 633.601 46.4492C633.207 46.1634 632.792 45.863 632.357 45.5333L627.423 41.6667L409.957 41.2667C256.223 41 191.423 41.4 189.023 42.4667C185.69 43.8 182.49 48.6 182.49 52.2C182.49 53.1333 183.69 55.5333 185.29 57.5333C187.957 60.8667 188.357 61 203.69 61H219.423L243.957 94.6C248.553 100.925 253.227 107.375 257.549 113.339C265.89 124.85 272.922 134.554 275.557 138.067L282.623 147.667L228.49 147.4L174.223 147L159.023 105.133C150.623 82.2 143.823 62.8667 143.823 62.2C143.823 61.5333 146.223 61 149.157 61C159.157 61 163.423 51.2667 156.49 44.3333L153.29 41L107.557 41.1333C82.3568 41.2667 60.6234 41.6667 59.1568 41.9333ZM63.8234 275.667V234H183.91L185.023 236.733C188.49 245.4 198.49 273.533 198.49 274.6C198.49 275.133 168.223 275.667 131.157 275.667H63.8234ZM63.8234 148H127.856C128.946 147.976 130.089 147.954 131.29 147.933C142.623 147.667 151.823 147.133 151.823 146.6C151.823 146.067 145.157 126.867 136.89 104.067L121.823 62.3333H92.8901H63.8234V148ZM343 191C343 198.245 342.486 205.37 341.494 212.34L348.475 212.438C347.503 205.437 347 198.279 347 191C347 183.133 347.587 175.408 348.719 167.869C344.615 167.97 341.9 168.105 341.288 168.264C342.415 175.678 343 183.271 343 191ZM370.655 234H529.527L551.157 254.867L573.823 276.867H487.69L401.423 277L385.957 255.667C378.193 244.991 371.753 235.861 370.655 234ZM558.838 234H621.053L621.157 275.667H611.69H602.223L580.357 254.6L558.838 234ZM620.813 148H557.719C548.952 147.692 536.69 147.667 519.157 147.667H468.49L424.49 105.533C400.357 82.3333 380.223 62.8667 380.09 62.2C379.823 61.4 426.09 61.1333 500.09 61.2667L620.49 61.6667L620.813 148ZM336.746 234H205.92L213.557 255L221.557 277H298.757C360.223 277 375.823 276.6 375.023 275.267C374.49 274.467 367.423 264.467 359.29 253.267L344.623 233H337.041C336.998 233.146 336.956 233.291 336.913 233.437C336.857 233.625 336.802 233.812 336.746 234ZM387.29 97.8C408.49 118.067 428.757 137.533 432.49 141.133L439.157 147.667H373.157L307.157 147.533L277.157 106.2C260.623 83.4 246.623 63.9333 246.09 62.8667C245.157 61.2667 252.623 61 296.89 61H348.623L387.29 97.8ZM205.29 172.333C214.623 178.467 217.29 191.4 211.157 201.667C207.29 208.467 201.157 211.667 192.223 211.667C177.29 211.667 167.023 197 172.357 183.133C177.69 169.133 192.757 164.2 205.29 172.333ZM497.423 169C504.357 171 509.957 176.067 512.49 183C517.957 197.133 507.823 211.667 492.49 211.667C483.823 211.667 477.29 208.2 473.557 201.533C466.223 188.867 472.49 173.133 486.223 169C491.157 167.533 491.823 167.533 497.423 169Z"/>
</mask>
<path fill-rule="evenodd" clip-rule="evenodd" d="M59.1568 41.9333C54.4901 43.1333 47.5568 49.1333 45.6901 53.8C44.0901 57.6667 43.8234 76.4667 44.0901 170.733L44.0973 172.764C43.3729 178.741 43 184.827 43 191C43 197.542 43.4188 203.986 44.2311 210.308L44.4901 283L47.5568 287.4C49.2901 289.8 52.6234 292.733 54.8901 294.067C58.8901 296.2 76.0901 296.333 342.49 296.333C608.89 296.333 626.09 296.2 630.09 294.067C632.357 292.733 635.69 289.8 637.423 287.4L640.49 283L640.89 170.733C640.907 165.366 640.925 160.241 640.941 155.348C641.248 64.0671 641.284 53.4276 635.987 48.3438C635.289 47.6731 634.497 47.099 633.601 46.4492C633.207 46.1634 632.792 45.863 632.357 45.5333L627.423 41.6667L409.957 41.2667C256.223 41 191.423 41.4 189.023 42.4667C185.69 43.8 182.49 48.6 182.49 52.2C182.49 53.1333 183.69 55.5333 185.29 57.5333C187.957 60.8667 188.357 61 203.69 61H219.423L243.957 94.6C248.553 100.925 253.227 107.375 257.549 113.339C265.89 124.85 272.922 134.554 275.557 138.067L282.623 147.667L228.49 147.4L174.223 147L159.023 105.133C150.623 82.2 143.823 62.8667 143.823 62.2C143.823 61.5333 146.223 61 149.157 61C159.157 61 163.423 51.2667 156.49 44.3333L153.29 41L107.557 41.1333C82.3568 41.2667 60.6234 41.6667 59.1568 41.9333ZM63.8234 275.667V234H183.91L185.023 236.733C188.49 245.4 198.49 273.533 198.49 274.6C198.49 275.133 168.223 275.667 131.157 275.667H63.8234ZM63.8234 148H127.856C128.946 147.976 130.089 147.954 131.29 147.933C142.623 147.667 151.823 147.133 151.823 146.6C151.823 146.067 145.157 126.867 136.89 104.067L121.823 62.3333H92.8901H63.8234V148ZM343 191C343 198.245 342.486 205.37 341.494 212.34L348.475 212.438C347.503 205.437 347 198.279 347 191C347 183.133 347.587 175.408 348.719 167.869C344.615 167.97 341.9 168.105 341.288 168.264C342.415 175.678 343 183.271 343 191ZM370.655 234H529.527L551.157 254.867L573.823 276.867H487.69L401.423 277L385.957 255.667C378.193 244.991 371.753 235.861 370.655 234ZM558.838 234H621.053L621.157 275.667H611.69H602.223L580.357 254.6L558.838 234ZM620.813 148H557.719C548.952 147.692 536.69 147.667 519.157 147.667H468.49L424.49 105.533C400.357 82.3333 380.223 62.8667 380.09 62.2C379.823 61.4 426.09 61.1333 500.09 61.2667L620.49 61.6667L620.813 148ZM336.746 234H205.92L213.557 255L221.557 277H298.757C360.223 277 375.823 276.6 375.023 275.267C374.49 274.467 367.423 264.467 359.29 253.267L344.623 233H337.041C336.998 233.146 336.956 233.291 336.913 233.437C336.857 233.625 336.802 233.812 336.746 234ZM387.29 97.8C408.49 118.067 428.757 137.533 432.49 141.133L439.157 147.667H373.157L307.157 147.533L277.157 106.2C260.623 83.4 246.623 63.9333 246.09 62.8667C245.157 61.2667 252.623 61 296.89 61H348.623L387.29 97.8ZM205.29 172.333C214.623 178.467 217.29 191.4 211.157 201.667C207.29 208.467 201.157 211.667 192.223 211.667C177.29 211.667 167.023 197 172.357 183.133C177.69 169.133 192.757 164.2 205.29 172.333ZM497.423 169C504.357 171 509.957 176.067 512.49 183C517.957 197.133 507.823 211.667 492.49 211.667C483.823 211.667 477.29 208.2 473.557 201.533C466.223 188.867 472.49 173.133 486.223 169C491.157 167.533 491.823 167.533 497.423 169Z" fill="#474747"/>
<path d="M45.6901 53.8L64.1704 61.447L64.2157 61.3377L64.2596 61.2278L45.6901 53.8ZM59.1568 41.9333L55.579 22.2559L54.872 22.3845L54.1759 22.5635L59.1568 41.9333ZM44.0901 170.733L24.0902 170.79L24.0902 170.797L24.0902 170.805L44.0901 170.733ZM44.0973 172.764L63.952 175.17L64.1016 173.936L64.0972 172.693L44.0973 172.764ZM44.2311 210.308L64.231 210.236L64.2265 208.992L64.068 207.758L44.2311 210.308ZM44.4901 283L24.4902 283.071L24.5125 289.314L28.0821 294.436L44.4901 283ZM47.5568 287.4L31.1488 298.836L31.2448 298.974L31.3432 299.11L47.5568 287.4ZM54.8901 294.067L44.7496 311.305L45.1097 311.517L45.4783 311.714L54.8901 294.067ZM630.09 294.067L639.502 311.714L639.871 311.517L640.231 311.305L630.09 294.067ZM637.423 287.4L653.637 299.11L653.735 298.974L653.831 298.836L637.423 287.4ZM640.49 283L656.898 294.436L660.468 289.314L660.49 283.071L640.49 283ZM640.89 170.733L660.89 170.805V170.798L640.89 170.733ZM640.941 155.348L660.941 155.416V155.416L640.941 155.348ZM635.987 48.3438L622.138 62.7729L622.138 62.773L635.987 48.3438ZM633.601 46.4492L645.341 30.258L645.341 30.2575L633.601 46.4492ZM632.357 45.5333L620.019 61.2745L620.151 61.3777L620.284 61.4787L632.357 45.5333ZM627.423 41.6667L639.761 25.9255L634.344 21.6794L627.46 21.6667L627.423 41.6667ZM409.957 41.2667L409.994 21.2667L409.991 21.2667L409.957 41.2667ZM189.023 42.4667L196.451 61.0362L196.801 60.8961L197.146 60.7429L189.023 42.4667ZM185.29 57.5333L200.908 45.0395L200.907 45.0394L185.29 57.5333ZM219.423 61L235.576 49.2061L229.584 41H219.423V61ZM243.957 94.6L260.137 82.8435L260.123 82.8248L260.109 82.8061L243.957 94.6ZM257.549 113.339L241.354 125.075V125.075L257.549 113.339ZM275.557 138.067L291.663 126.21L291.61 126.138L291.557 126.067L275.557 138.067ZM282.623 147.667L282.525 167.666L322.324 167.862L298.73 135.81L282.623 147.667ZM228.49 147.4L228.343 167.399L228.367 167.4L228.392 167.4L228.49 147.4ZM174.223 147L155.424 153.825L160.17 166.897L174.076 166.999L174.223 147ZM159.023 105.133L177.823 98.3081L177.813 98.2814L177.803 98.2547L159.023 105.133ZM156.49 44.3333L142.062 58.184L142.204 58.3312L142.348 58.4755L156.49 44.3333ZM153.29 41L167.718 27.1494L161.791 20.9751L153.232 21.0001L153.29 41ZM107.557 41.1333L107.498 21.1334L107.475 21.1335L107.451 21.1336L107.557 41.1333ZM63.8234 234V214H43.8234V234H63.8234ZM63.8234 275.667H43.8234V295.667H63.8234V275.667ZM183.91 234L202.432 226.454L197.358 214H183.91V234ZM185.023 236.733L203.593 229.306L203.569 229.246L203.545 229.187L185.023 236.733ZM127.856 148V168H128.074L128.293 167.995L127.856 148ZM63.8234 148H43.8234V168H63.8234V148ZM131.29 147.933L131.641 167.93L131.701 167.929L131.761 167.928L131.29 147.933ZM136.89 104.067L118.078 110.858L118.083 110.871L118.088 110.884L136.89 104.067ZM121.823 62.3333L140.635 55.5419L135.866 42.3333H121.823V62.3333ZM63.8234 62.3333V42.3333H43.8234V62.3333H63.8234ZM341.494 212.34L321.693 209.52L318.489 232.018L341.212 232.338L341.494 212.34ZM348.475 212.438L348.193 232.436L371.488 232.764L368.285 209.688L348.475 212.438ZM348.719 167.869L368.498 170.838L372.034 147.288L348.227 147.875L348.719 167.869ZM341.288 168.264L336.247 148.91L318.806 153.453L321.515 171.271L341.288 168.264ZM529.527 234L543.413 219.606L537.601 214H529.527V234ZM370.655 234V214H335.632L353.43 244.164L370.655 234ZM551.157 254.867L565.086 240.515L565.065 240.494L565.043 240.473L551.157 254.867ZM573.823 276.867V296.867H623.146L587.753 262.515L573.823 276.867ZM487.69 276.867V256.867H487.675L487.659 256.867L487.69 276.867ZM401.423 277L385.231 288.739L391.232 297.016L401.454 297L401.423 277ZM385.957 255.667L402.149 243.927L402.14 243.915L402.132 243.903L385.957 255.667ZM621.053 234L641.053 233.95L641.003 214H621.053V234ZM558.838 234V214H509.025L545.008 248.447L558.838 234ZM621.157 275.667V295.667H641.207L641.157 275.617L621.157 275.667ZM602.223 275.667L588.347 290.07L594.157 295.667H602.223V275.667ZM580.357 254.6L594.233 240.197L594.21 240.175L594.187 240.153L580.357 254.6ZM557.719 148L557.017 167.988L557.368 168H557.719V148ZM620.813 148V168H640.888L640.813 147.925L620.813 148ZM468.49 147.667L454.658 162.112L460.459 167.667H468.49V147.667ZM424.49 105.533L410.63 119.952L410.644 119.965L410.658 119.979L424.49 105.533ZM380.09 62.2L399.702 58.2777L399.458 57.0568L399.064 55.8755L380.09 62.2ZM500.09 61.2667L500.157 41.2668L500.141 41.2667L500.126 41.2667L500.09 61.2667ZM620.49 61.6667L640.49 61.5919L640.416 41.7328L620.557 41.6668L620.49 61.6667ZM205.92 234V214H177.366L187.125 240.835L205.92 234ZM336.746 234V254H351.644L355.909 239.725L336.746 234ZM213.557 255L194.761 261.835L213.557 255ZM221.557 277L202.761 283.835L207.548 297H221.557V277ZM375.023 275.267L392.173 264.977L391.928 264.569L391.664 264.172L375.023 275.267ZM359.29 253.267L343.088 264.992L343.097 265.005L343.107 265.019L359.29 253.267ZM344.623 233L360.826 221.275L354.838 213H344.623V233ZM337.041 233V213H322.032L317.838 227.41L337.041 233ZM336.913 233.437L356.099 239.085L336.913 233.437ZM432.49 141.133L446.489 126.849L446.431 126.793L446.373 126.737L432.49 141.133ZM387.29 97.8L401.11 83.3432L401.094 83.3278L401.078 83.3125L387.29 97.8ZM439.157 147.667V167.667H488.139L453.155 133.382L439.157 147.667ZM373.157 147.667L373.116 167.667L373.137 167.667H373.157V147.667ZM307.157 147.533L290.971 159.281L296.945 167.513L307.116 167.533L307.157 147.533ZM277.157 106.2L260.966 117.941L260.971 117.948L277.157 106.2ZM246.09 62.8667L263.979 53.9225L263.69 53.346L263.366 52.7892L246.09 62.8667ZM348.623 61L362.412 46.5125L356.619 41H348.623V61ZM211.157 201.667L193.987 191.41L193.877 191.594L193.771 191.781L211.157 201.667ZM205.29 172.333L216.274 155.619L216.226 155.588L216.177 155.556L205.29 172.333ZM172.357 183.133L191.024 190.313L191.035 190.283L191.047 190.253L172.357 183.133ZM512.49 183L493.705 189.864L493.769 190.04L493.837 190.215L512.49 183ZM497.423 169L502.967 149.784L502.729 149.715L502.491 149.653L497.423 169ZM473.557 201.533L491.007 191.761L490.937 191.636L490.865 191.513L473.557 201.533ZM486.223 169L480.524 149.829L480.492 149.839L480.459 149.849L486.223 169ZM64.2596 61.2278C64.119 61.5793 63.9878 61.8547 63.8865 62.0519C63.7845 62.2503 63.7002 62.3941 63.6452 62.4834C63.5897 62.5736 63.5537 62.6252 63.5437 62.6392C63.5333 62.6539 63.5414 62.6417 63.5711 62.6044C63.6006 62.5674 63.6459 62.5125 63.7085 62.4415C63.7708 62.3707 63.8458 62.2889 63.9335 62.198C64.0211 62.1073 64.1177 62.0111 64.2225 61.9114C64.3273 61.8117 64.4371 61.7114 64.5505 61.6121C64.6639 61.5128 64.7778 61.4171 64.8905 61.3263C65.0033 61.2355 65.1115 61.1522 65.2132 61.0772C65.315 61.002 65.4061 60.9382 65.4845 60.8856C65.5632 60.8328 65.6235 60.795 65.6638 60.7708C65.7044 60.7464 65.7167 60.7404 65.6995 60.7495C65.683 60.7583 65.6246 60.7886 65.5243 60.8338C65.425 60.8785 65.265 60.9465 65.0461 61.0255C64.9353 61.0655 64.8049 61.11 64.6553 61.1565C64.5059 61.203 64.333 61.2529 64.1376 61.3032L54.1759 22.5635C47.4877 24.2833 41.7987 28.3662 38.1964 31.5212C34.5748 34.6931 29.7327 39.8419 27.1206 46.3722L64.2596 61.2278ZM64.09 170.677C63.9565 123.496 63.9576 95.4088 64.1882 78.6417C64.3041 70.2122 64.4747 64.9826 64.6854 61.7441C64.9636 57.4673 65.2329 58.8794 64.1704 61.447L27.2098 46.153C25.3473 50.654 24.9832 55.866 24.7698 59.1476C24.4888 63.4674 24.3094 69.5545 24.192 78.0916C23.9559 95.2579 23.957 123.704 24.0902 170.79L64.09 170.677ZM64.0972 172.693L64.09 170.662L24.0902 170.805L24.0975 172.835L64.0972 172.693ZM63 191C63 185.633 63.3241 180.351 63.952 175.17L24.2426 170.358C23.4216 177.132 23 184.021 23 191H63ZM64.068 207.758C63.3641 202.281 63 196.688 63 191H23C23 198.397 23.4736 205.692 24.3942 212.857L64.068 207.758ZM64.49 282.929L64.231 210.236L24.2312 210.379L24.4902 283.071L64.49 282.929ZM63.9647 275.964L60.898 271.564L28.0821 294.436L31.1488 298.836L63.9647 275.964ZM65.0305 276.828C65.3147 276.995 65.3449 277.037 65.1283 276.873C64.9418 276.731 64.6854 276.522 64.4027 276.267C64.1196 276.013 63.8876 275.782 63.7298 275.613C63.5508 275.422 63.5913 275.442 63.7703 275.69L31.3432 299.11C34.7864 303.877 40.2337 308.649 44.7496 311.305L65.0305 276.828ZM342.49 276.333C209.243 276.333 138.447 276.3 100.448 276.001C81.3601 275.85 70.9037 275.634 65.0376 275.345C62.0499 275.198 60.8164 275.055 60.4619 275.002C60.141 274.953 61.956 275.168 64.3018 276.42L45.4783 311.714C48.8242 313.498 52.0517 314.184 54.4777 314.551C56.8701 314.913 59.7178 315.131 63.0676 315.297C69.8765 315.632 81.1201 315.85 100.133 315.999C138.333 316.3 209.337 316.333 342.49 316.333V276.333ZM620.678 276.42C623.024 275.168 624.839 274.953 624.518 275.002C624.164 275.055 622.93 275.198 619.943 275.345C614.077 275.634 603.62 275.85 584.533 276.001C546.533 276.3 475.737 276.333 342.49 276.333V316.333C475.643 316.333 546.647 316.3 584.848 315.999C603.86 315.85 615.104 315.632 621.913 315.297C625.263 315.131 628.11 314.913 630.503 314.551C632.929 314.184 636.156 313.498 639.502 311.714L620.678 276.42ZM621.21 275.69C621.389 275.442 621.429 275.422 621.25 275.613C621.093 275.782 620.861 276.013 620.577 276.267C620.295 276.522 620.038 276.731 619.852 276.873C619.635 277.037 619.666 276.995 619.95 276.828L640.231 311.305C644.747 308.649 650.194 303.877 653.637 299.11L621.21 275.69ZM624.082 271.564L621.016 275.964L653.831 298.836L656.898 294.436L624.082 271.564ZM620.89 170.662L620.49 282.929L660.49 283.071L660.89 170.805L620.89 170.662ZM620.941 155.281C620.925 160.174 620.908 165.3 620.89 170.669L660.89 170.798C660.907 165.432 660.924 160.308 660.941 155.416L620.941 155.281ZM622.138 62.773C620.071 60.789 619.501 58.6545 619.568 58.9417C619.842 60.109 620.282 63.1499 620.583 70.3573C621.174 84.4824 621.096 109.336 620.941 155.281L660.941 155.416C661.094 110.08 661.187 83.9726 660.548 68.6867C660.235 61.1886 659.709 54.9114 658.51 49.8015C657.104 43.8114 654.552 38.4406 649.837 33.9147L622.138 62.773ZM621.86 62.6404C621.975 62.7237 622.069 62.7923 622.16 62.8582C622.249 62.9229 622.322 62.9763 622.385 63.023C622.514 63.1182 622.576 63.1656 622.6 63.1838C622.621 63.2002 622.582 63.1707 622.503 63.1041C622.423 63.036 622.296 62.9246 622.138 62.7729L649.837 33.9148C647.966 32.119 646.005 30.7394 645.341 30.258L621.86 62.6404ZM620.284 61.4787C620.909 61.9514 621.484 62.3679 621.861 62.6409L645.341 30.2575C644.929 29.959 644.676 29.7747 644.429 29.588L620.284 61.4787ZM615.086 57.4078L620.019 61.2745L644.694 29.7922L639.761 25.9255L615.086 57.4078ZM409.92 61.2666L627.387 61.6666L627.46 21.6667L409.994 21.2667L409.92 61.2666ZM197.146 60.7429C195.565 61.4458 194.269 61.7642 193.85 61.8646C193.277 62.0024 192.837 62.0778 192.631 62.1111C192.22 62.1777 191.998 62.1948 192.111 62.184C192.302 62.1658 192.84 62.1247 193.877 62.0741C195.895 61.9754 199.002 61.8779 203.354 61.7873C212.012 61.6073 225.018 61.4662 242.852 61.3664C278.491 61.1668 333.062 61.1333 409.922 61.2666L409.991 21.2667C333.118 21.1334 278.423 21.1665 242.628 21.367C224.746 21.4671 211.494 21.6094 202.522 21.796C198.059 21.8888 194.509 21.9954 191.924 22.1218C190.658 22.1836 189.409 22.2602 188.311 22.3649C187.78 22.4156 187.039 22.4955 186.233 22.6261C186.063 22.6537 183.594 22.9933 180.901 24.1904L197.146 60.7429ZM202.49 52.2C202.49 54.1485 202.084 55.5007 201.858 56.128C201.609 56.8175 201.341 57.2886 201.124 57.6125C200.908 57.9352 200.564 58.3783 199.996 58.8916C199.477 59.3599 198.33 60.2848 196.451 61.0362L181.596 23.8971C174.918 26.5681 170.446 31.5372 167.889 35.3542C165.321 39.1894 162.49 45.1402 162.49 52.2H202.49ZM200.907 45.0394C200.948 45.0902 200.963 45.1008 201.054 45.2782C201.101 45.3674 201.307 45.7702 201.551 46.4576C201.675 46.8079 201.872 47.4071 202.052 48.202C202.212 48.9092 202.49 50.3348 202.49 52.2H162.49C162.49 55.9059 163.496 58.8245 163.854 59.834C164.373 61.2965 164.98 62.5993 165.526 63.6551C166.618 65.7659 168.032 67.9764 169.673 70.0273L200.907 45.0394ZM203.69 41C199.793 41 197.193 40.9901 195.299 40.9354C194.379 40.9088 193.801 40.8759 193.449 40.8475C193.086 40.818 193.16 40.8082 193.502 40.8736C193.865 40.9431 194.672 41.1237 195.718 41.5453C196.833 41.9949 197.957 42.6122 199.01 43.3892C200.011 44.1276 200.668 44.8058 200.953 45.1168C201.17 45.3528 201.256 45.475 200.908 45.0395L169.673 70.0272C170.128 70.5961 172.18 73.3021 175.258 75.5733C178.919 78.2754 182.706 79.5331 185.979 80.1598C190.698 81.0634 197.13 81 203.69 81V41ZM219.423 41H203.69V81H219.423V41ZM260.109 82.8061L235.576 49.2061L203.271 72.7939L227.804 106.394L260.109 82.8061ZM273.743 101.603C269.423 95.6408 264.741 89.1809 260.137 82.8435L227.777 106.357C232.364 112.67 237.031 119.109 241.354 125.075L273.743 101.603ZM291.557 126.067C289.05 122.725 282.163 113.222 273.743 101.603L241.354 125.075C249.617 136.478 256.793 146.382 259.557 150.067L291.557 126.067ZM298.73 135.81L291.663 126.21L259.45 149.923L266.517 159.523L298.73 135.81ZM228.392 167.4L282.525 167.666L282.722 127.667L228.589 127.4L228.392 167.4ZM174.076 166.999L228.343 167.399L228.638 127.401L174.371 127.001L174.076 166.999ZM140.224 111.959L155.424 153.825L193.023 140.175L177.823 98.3081L140.224 111.959ZM123.823 62.2C123.823 63.9232 124.055 65.2639 124.11 65.5869C124.202 66.1312 124.299 66.5688 124.356 66.8164C124.472 67.3202 124.588 67.7408 124.653 67.9701C124.792 68.4633 124.945 68.9557 125.07 69.3484C125.332 70.1743 125.68 71.2203 126.079 72.3936C126.886 74.7713 128.029 78.0553 129.416 81.9794C132.195 89.8458 136.022 100.485 140.244 112.012L177.803 98.2547C173.625 86.848 169.852 76.3542 167.131 68.6539C165.767 64.7947 164.686 61.687 163.956 59.5356C163.585 58.4443 163.337 57.6913 163.194 57.2428C163.116 56.9982 163.115 56.9845 163.151 57.1101C163.163 57.1555 163.24 57.427 163.33 57.8171C163.374 58.0078 163.462 58.3975 163.547 58.9029C163.595 59.1869 163.823 60.4976 163.823 62.2H123.823ZM149.157 41C146.671 41 143.802 41.2098 141.016 41.8342C139.785 42.11 137.416 42.7127 134.868 44.0654C133.61 44.7328 131.331 46.0891 129.142 48.4938C126.847 51.015 123.823 55.6819 123.823 62.2H163.823C163.823 68.5514 160.875 73.0559 158.722 75.4203C156.676 77.6682 154.607 78.8735 153.621 79.3971C151.614 80.4623 150.028 80.8066 149.764 80.8658C148.912 81.0568 148.709 81 149.157 81V41ZM142.348 58.4755C140.748 56.8751 138.583 52.4107 140.863 47.2212C143.066 42.207 147.436 41 149.157 41V81C160.877 81 172.381 74.9264 177.484 63.3121C182.664 51.5226 179.166 38.7249 170.632 30.1912L142.348 58.4755ZM138.862 54.8506L142.062 58.184L170.918 30.4827L167.718 27.1494L138.862 54.8506ZM107.615 61.1332L153.348 60.9999L153.232 21.0001L107.498 21.1334L107.615 61.1332ZM62.7345 61.6107C61.2904 61.8733 60.1951 61.8699 61.5598 61.806C62.1727 61.7772 63.1068 61.7432 64.3785 61.706C66.901 61.6323 70.4525 61.5548 74.7989 61.4804C83.476 61.3319 95.1298 61.1994 107.663 61.1331L107.451 21.1336C94.7837 21.2006 82.9708 21.3347 74.1146 21.4863C69.6944 21.5619 65.9625 21.6427 63.21 21.7231C61.8443 21.763 60.6429 21.805 59.6881 21.8498C59.4851 21.8593 57.3897 21.9267 55.579 22.2559L62.7345 61.6107ZM43.8234 234V275.667H83.8234V234H43.8234ZM183.91 214H63.8234V254H183.91V214ZM203.545 229.187L202.432 226.454L165.388 241.546L166.502 244.279L203.545 229.187ZM218.49 274.6C218.49 272.971 218.285 271.701 218.225 271.327C218.134 270.769 218.037 270.314 217.976 270.042C217.853 269.493 217.726 269.024 217.648 268.742C217.482 268.146 217.293 267.531 217.127 267.005C216.783 265.913 216.325 264.535 215.813 263.026C214.778 259.977 213.385 255.99 211.901 251.816C208.973 243.582 205.488 234.044 203.593 229.306L166.454 244.161C168.025 248.089 171.274 256.951 174.212 265.217C175.662 269.293 176.985 273.081 177.934 275.878C178.414 277.293 178.764 278.355 178.98 279.039C179.095 279.402 179.124 279.508 179.106 279.446C179.102 279.431 179.032 279.181 178.947 278.802C178.905 278.615 178.822 278.232 178.741 277.734C178.69 277.419 178.49 276.195 178.49 274.6H218.49ZM131.157 295.667C149.773 295.667 166.718 295.533 179.051 295.331C185.199 295.23 190.296 295.111 193.913 294.978C195.682 294.914 197.301 294.839 198.572 294.746C199.132 294.705 200.043 294.632 200.99 294.496C201.333 294.447 202.497 294.28 203.886 293.883C204.427 293.729 206.249 293.205 208.335 292.022C209.368 291.436 211.445 290.148 213.469 287.859C215.595 285.454 218.49 280.932 218.49 274.6H178.49C178.49 268.276 181.381 263.763 183.501 261.366C185.517 259.085 187.583 257.806 188.601 257.228C190.658 256.062 192.436 255.554 192.918 255.417C194.191 255.054 195.18 254.92 195.292 254.904C195.778 254.834 196.002 254.827 195.663 254.852C195.134 254.891 194.098 254.945 192.451 255.005C189.234 255.123 184.448 255.237 178.396 255.336C166.329 255.534 149.608 255.667 131.157 255.667V295.667ZM63.8234 295.667H131.157V255.667H63.8234V295.667ZM127.856 128H63.8234V168H127.856V128ZM130.939 127.936C129.72 127.958 128.546 127.98 127.42 128.005L128.293 167.995C129.345 167.972 130.458 167.951 131.641 167.93L130.939 127.936ZM131.823 146.6C131.823 138.905 136.034 134.015 138.111 132.065C140.246 130.063 142.308 129.027 143.147 128.629C144.954 127.772 146.436 127.425 146.708 127.359C147.566 127.152 148.069 127.108 147.743 127.148C147.317 127.201 146.296 127.297 144.554 127.406C141.196 127.617 136.346 127.809 130.82 127.939L131.761 167.928C137.567 167.791 142.985 167.583 147.06 167.327C149.035 167.203 151.022 167.049 152.675 166.843C153.388 166.755 154.699 166.579 156.104 166.24C156.65 166.108 158.341 165.694 160.287 164.771C161.197 164.339 163.312 163.271 165.482 161.235C167.595 159.252 171.823 154.328 171.823 146.6H131.823ZM118.088 110.884C122.198 122.219 125.906 132.648 128.579 140.289C129.918 144.116 130.984 147.204 131.706 149.34C132.071 150.421 132.323 151.182 132.471 151.646C132.551 151.897 132.562 151.938 132.537 151.851C132.53 151.826 132.46 151.588 132.375 151.242C132.335 151.078 132.246 150.706 132.156 150.22C132.128 150.069 131.823 148.551 131.823 146.6H171.823C171.823 144.632 171.516 143.089 171.481 142.903C171.384 142.382 171.286 141.966 171.233 141.749C171.122 141.298 171.014 140.919 170.956 140.719C170.829 140.281 170.689 139.833 170.571 139.463C170.322 138.686 169.988 137.681 169.6 136.531C168.813 134.205 167.695 130.968 166.335 127.078C163.608 119.285 159.849 108.715 155.692 97.2495L118.088 110.884ZM103.012 69.1247L118.078 110.858L155.702 97.2753L140.635 55.5419L103.012 69.1247ZM92.8901 82.3333H121.823V42.3333H92.8901V82.3333ZM63.8234 82.3333H92.8901V42.3333H63.8234V82.3333ZM83.8234 148V62.3333H43.8234V148H83.8234ZM361.294 215.16C362.419 207.258 363 199.191 363 191H323C323 197.298 322.554 203.481 321.693 209.52L361.294 215.16ZM348.757 192.44L341.775 192.342L341.212 232.338L348.193 232.436L348.757 192.44ZM368.285 209.688C367.439 203.596 367 197.357 367 191H327C327 199.201 327.567 207.278 328.665 215.188L368.285 209.688ZM367 191C367 184.13 367.513 177.398 368.498 170.838L328.941 164.899C327.662 173.419 327 182.137 327 191H367ZM346.329 187.618C345.71 187.779 345.219 187.874 344.955 187.921C344.666 187.973 344.44 188.005 344.308 188.023C344.169 188.042 344.068 188.054 344.016 188.059C343.987 188.062 343.966 188.065 343.953 188.066C343.94 188.067 343.934 188.068 343.933 188.068C343.933 188.068 343.938 188.067 343.948 188.067C343.959 188.066 343.974 188.064 343.994 188.063C344.034 188.06 344.089 188.056 344.161 188.051C344.306 188.041 344.497 188.03 344.738 188.017C345.741 187.965 347.237 187.911 349.212 187.863L348.227 147.875C346.097 147.927 344.184 147.992 342.65 148.072C341.895 148.111 341.089 148.162 340.327 148.231C340.054 148.255 338.211 148.398 336.247 148.91L346.329 187.618ZM363 191C363 182.261 362.339 173.663 361.061 165.258L321.515 171.271C322.492 177.693 323 184.281 323 191H363ZM529.527 214H370.655V254H529.527V214ZM565.043 240.473L543.413 219.606L515.641 248.394L537.271 269.261L565.043 240.473ZM587.753 262.515L565.086 240.515L537.227 269.218L559.894 291.218L587.753 262.515ZM487.69 296.867H573.823V256.867H487.69V296.867ZM401.454 297L487.721 296.867L487.659 256.867L401.393 257L401.454 297ZM369.765 267.406L385.231 288.739L417.616 265.261L402.149 243.927L369.765 267.406ZM353.43 244.164C355.149 247.076 362.36 257.224 369.782 267.43L402.132 243.903C398.292 238.624 394.797 233.75 392.145 229.993C390.816 228.11 389.725 226.546 388.92 225.37C387.972 223.985 387.754 223.623 387.88 223.836L353.43 244.164ZM621.053 214H558.838V254H621.053V214ZM641.157 275.617L641.053 233.95L601.053 234.05L601.157 275.716L641.157 275.617ZM611.69 295.667H621.157V255.667H611.69V295.667ZM602.223 295.667H611.69V255.667H602.223V295.667ZM566.481 269.003L588.347 290.07L616.1 261.264L594.233 240.197L566.481 269.003ZM545.008 248.447L566.526 269.047L594.187 240.153L572.669 219.553L545.008 248.447ZM557.719 168H620.813V128H557.719V168ZM519.157 167.667C536.82 167.667 548.68 167.695 557.017 167.988L558.421 128.012C549.224 127.689 536.561 127.667 519.157 127.667V167.667ZM468.49 167.667H519.157V127.667H468.49V167.667ZM410.658 119.979L454.658 162.112L482.323 133.221L438.323 91.0881L410.658 119.979ZM360.478 66.1223C361.211 69.783 362.84 72.3349 362.986 72.5765C363.478 73.3914 363.928 74.0059 364.15 74.303C364.62 74.9311 365.047 75.4275 365.25 75.6618C365.709 76.1895 366.189 76.7013 366.559 77.0896C367.347 77.9178 368.381 78.9662 369.554 80.1382C371.934 82.5158 375.294 85.8112 379.342 89.75C387.456 97.6462 398.561 108.35 410.63 119.952L438.351 91.1151C426.286 79.5169 415.258 68.8871 407.238 61.0834C403.219 57.1721 400.013 54.0259 397.826 51.841C396.716 50.7318 395.967 49.9687 395.534 49.514C395.293 49.2609 395.303 49.2635 395.441 49.4215C395.484 49.4709 395.787 49.8173 396.171 50.3312C396.351 50.5713 396.768 51.1376 397.236 51.9135C397.358 52.116 398.974 54.6378 399.702 58.2777L360.478 66.1223ZM500.126 41.2667C463.11 41.2 432.971 41.2332 412.096 41.3839C401.678 41.459 393.464 41.5641 387.825 41.7041C385.047 41.773 382.682 41.8553 380.929 41.9611C380.139 42.0088 379.021 42.0865 377.925 42.2334C377.555 42.283 376.189 42.4623 374.59 42.9298C374.065 43.0833 371.671 43.7649 369.069 45.4879C367.772 46.3467 364.963 48.4036 362.793 52.1453C360.193 56.6267 359.13 62.5657 361.116 68.5245L399.064 55.8755C401.046 61.8218 399.985 67.7484 397.392 72.2174C395.229 75.9467 392.433 77.9913 391.154 78.8379C388.59 80.5364 386.255 81.1938 385.812 81.3233C384.377 81.7429 383.265 81.8754 383.237 81.879C382.825 81.9342 382.746 81.9242 383.34 81.8884C384.356 81.827 386.14 81.7582 388.818 81.6918C394.092 81.5609 402.019 81.4576 412.384 81.3828C433.075 81.2335 463.07 81.2 500.054 81.2666L500.126 41.2667ZM620.557 41.6668L500.157 41.2668L500.024 81.2666L620.424 81.6666L620.557 41.6668ZM640.813 147.925L640.49 61.5919L600.49 61.7415L600.813 148.075L640.813 147.925ZM205.92 254H336.746V214H205.92V254ZM232.353 248.165L224.716 227.165L187.125 240.835L194.761 261.835L232.353 248.165ZM240.353 270.165L232.353 248.165L194.761 261.835L202.761 283.835L240.353 270.165ZM298.757 257H221.557V297H298.757V257ZM357.874 285.557C355.956 282.36 354.263 277.374 355.434 271.486C356.539 265.934 359.645 262.38 361.654 260.587C365.083 257.526 368.616 256.607 368.843 256.54C370.339 256.099 371.195 256.092 370.15 256.194C368.645 256.341 365.503 256.506 359.776 256.639C348.564 256.899 329.53 257 298.757 257V297C329.45 297 348.95 296.901 360.704 296.628C366.461 296.494 370.91 296.309 374.027 296.006C375.292 295.883 377.716 295.626 380.151 294.908C380.848 294.703 384.695 293.638 388.294 290.425C390.388 288.555 393.545 284.923 394.665 279.292C395.852 273.324 394.141 268.257 392.173 264.977L357.874 285.557ZM343.107 265.019C347.132 270.561 350.896 275.811 353.718 279.772C355.129 281.753 356.299 283.403 357.144 284.599C358.095 285.947 358.436 286.441 358.383 286.361L391.664 264.172C390.865 262.973 383.543 252.628 375.473 241.515L343.107 265.019ZM328.421 244.725L343.088 264.992L375.492 241.541L360.826 221.275L328.421 244.725ZM337.041 253H344.623V213H337.041V253ZM356.099 239.085C356.147 238.92 356.195 238.755 356.244 238.59L317.838 227.41C317.801 227.536 317.764 227.663 317.727 227.789L356.099 239.085ZM355.909 239.725C355.973 239.512 356.036 239.298 356.099 239.085L317.727 227.789C317.679 227.951 317.631 228.113 317.583 228.275L355.909 239.725ZM446.373 126.737C442.611 123.109 422.322 103.621 401.11 83.3432L373.47 112.257C394.658 132.513 414.902 151.958 418.607 155.53L446.373 126.737ZM453.155 133.382L446.489 126.849L418.492 155.418L425.158 161.951L453.155 133.382ZM373.157 167.667H439.157V127.667H373.157V167.667ZM307.116 167.533L373.116 167.667L373.197 127.667L307.197 127.533L307.116 167.533ZM260.971 117.948L290.971 159.281L323.343 135.785L293.343 94.4521L260.971 117.948ZM228.202 71.8108C228.655 72.7185 229.101 73.4291 229.178 73.5539C229.351 73.8323 229.512 74.0816 229.632 74.263C229.875 74.6338 230.148 75.0352 230.412 75.4204C230.952 76.2066 231.666 77.2266 232.506 78.4161C234.196 80.8106 236.548 84.1056 239.374 88.044C245.035 95.9317 252.69 106.528 260.966 117.941L293.348 94.4591C285.091 83.0721 277.479 72.535 271.872 64.7227C269.065 60.811 266.784 57.6144 265.183 55.3464C264.377 54.2047 263.78 53.3507 263.388 52.7791C262.445 51.4059 263.256 52.478 263.979 53.9225L228.202 71.8108ZM296.89 41C274.897 41 261.541 41.0636 253.808 41.3467C250.294 41.4754 246.555 41.6798 243.518 42.2822C242.779 42.4288 238.054 43.2366 233.725 46.6861C230.979 48.8745 227.282 53.0383 226.267 59.4544C225.287 65.6399 227.363 70.4549 228.815 72.9441L263.366 52.7892C264.701 55.0784 266.725 59.7038 265.774 65.7097C264.787 71.9461 261.198 75.9401 258.654 77.9681C256.316 79.8306 254.153 80.6565 253.309 80.955C252.3 81.3118 251.55 81.4681 251.3 81.5178C250.784 81.6202 251.503 81.458 255.272 81.3199C262.106 81.0697 274.617 81 296.89 81V41ZM348.623 41H296.89V81H348.623V41ZM401.078 83.3125L362.412 46.5125L334.835 75.4875L373.502 112.288L401.078 83.3125ZM228.326 211.924C239.45 193.304 235.358 168.16 216.274 155.619L194.307 189.047C194.307 189.048 194.304 189.045 194.298 189.041C194.293 189.037 194.288 189.032 194.283 189.028C194.273 189.018 194.275 189.017 194.285 189.032C194.306 189.064 194.373 189.182 194.419 189.408C194.511 189.862 194.478 190.588 193.987 191.41L228.326 211.924ZM192.223 231.667C199.039 231.667 206.2 230.446 212.909 226.913C219.789 223.29 224.937 217.893 228.543 211.553L193.771 191.781C193.6 192.082 193.553 192.084 193.693 191.944C193.846 191.791 194.058 191.632 194.271 191.52C194.713 191.288 194.342 191.667 192.223 191.667V231.667ZM153.69 175.954C143.196 203.239 163.597 231.667 192.223 231.667V191.667C191.817 191.667 191.608 191.579 191.494 191.518C191.347 191.44 191.205 191.317 191.094 191.158C190.983 191 190.944 190.864 190.934 190.784C190.928 190.744 190.908 190.613 191.024 190.313L153.69 175.954ZM216.177 155.556C192.918 140.463 163.517 150.156 153.667 176.013L191.047 190.253C191.395 189.338 191.774 188.89 191.967 188.701C192.163 188.51 192.296 188.457 192.353 188.438C192.409 188.42 192.54 188.386 192.796 188.422C193.047 188.458 193.6 188.589 194.403 189.11L216.177 155.556ZM531.275 176.136C526.496 163.054 515.873 153.507 502.967 149.784L491.88 188.216C492.394 188.365 492.773 188.599 493.045 188.85C493.309 189.093 493.54 189.413 493.705 189.864L531.275 176.136ZM492.49 231.667C521.487 231.667 541.818 203.384 531.143 175.785L493.837 190.215C494.018 190.682 493.989 190.906 493.984 190.949C493.974 191.024 493.947 191.104 493.886 191.191C493.825 191.279 493.726 191.378 493.568 191.461C493.436 191.53 493.117 191.667 492.49 191.667V231.667ZM456.107 211.305C463.956 225.321 477.851 231.667 492.49 231.667V191.667C490.814 191.667 490.371 191.339 490.595 191.458C490.695 191.512 490.833 191.608 490.955 191.729C491.074 191.847 491.079 191.889 491.007 191.761L456.107 211.305ZM480.459 149.849C454.242 157.739 442.512 187.828 456.248 211.554L490.865 191.513C490.349 190.62 490.396 189.913 490.609 189.37C490.828 188.811 491.237 188.377 491.987 188.151L480.459 149.849ZM502.491 149.653C500.237 149.062 496.1 147.9 491.573 147.9C486.736 147.9 482.619 149.206 480.524 149.829L491.923 188.171C492.204 188.087 492.445 188.016 492.659 187.954C492.872 187.893 493.043 187.845 493.182 187.806C493.472 187.727 493.556 187.71 493.514 187.719C493.459 187.731 493.224 187.78 492.864 187.824C492.682 187.846 492.478 187.865 492.255 187.879C492.031 187.893 491.803 187.9 491.573 187.9C491.104 187.9 490.715 187.87 490.438 187.838C490.179 187.809 490.054 187.781 490.125 187.795C490.203 187.811 490.402 187.853 490.798 187.949C491.194 188.046 491.687 188.172 492.356 188.347L502.491 149.653Z" fill="#1D1D1D" mask="url(#path-11-inside-1_72_75)"/>
<path d="M162.8 388.735C159.6 392.735 159.333 394.468 161.467 399.002C163.733 403.935 168.133 405.268 181.867 405.268C192.4 405.268 194.8 404.868 197.867 402.468C202.267 399.002 202.667 391.935 198.667 387.935C196.267 385.535 194.267 385.268 180.8 385.268C165.867 385.268 165.467 385.402 162.8 388.735Z" fill="#1D1D1D"/>
<path d="M484 387.935C480 391.935 480.4 399.002 484.8 402.468C487.867 404.868 490.267 405.268 500.8 405.268C514.533 405.268 518.933 403.935 521.2 399.002C523.333 394.468 523.067 392.735 519.867 388.735C517.2 385.402 516.8 385.268 501.867 385.268C488.4 385.268 486.4 385.535 484 387.935Z" fill="#1D1D1D"/>
</svg>
