<svg width="1440" height="312" viewBox="0 0 1440 312" fill="none" xmlns="http://www.w3.org/2000/svg">
<path fill-rule="evenodd" clip-rule="evenodd" d="M0 24L16.8 18C34.8 12 68.4 0 103.2 0C136.8 0 171.6 12 205.2 42C240 72 274.8 120 308.4 138C343.2 156 376.8 144 411.6 114C445.2 84 480 36 514.8 24C548.4 12 583.2 36 616.8 60C651.6 84 685.2 108 720 120C754.8 132 788.4 132 823.2 156C856.8 180 891.6 228 925.2 198C960 168 994.8 60 1028.4 24C1063.2 -12 1096.8 24 1131.6 24C1165.2 24 1200 -12 1234.8 6C1268.4 24 1303.2 96 1336.8 108C1371.6 120 1405.2 72 1423.2 48L1440 24V312H1423.2C1405.2 312 1371.6 312 1336.8 312C1303.2 312 1268.4 312 1234.8 312C1200 312 1165.2 312 1131.6 312C1096.8 312 1063.2 312 1028.4 312C994.8 312 960 312 925.2 312C891.6 312 856.8 312 823.2 312C788.4 312 754.8 312 720 312C685.2 312 651.6 312 616.8 312C583.2 312 548.4 312 514.8 312C480 312 445.2 312 411.6 312C376.8 312 343.2 312 308.4 312C274.8 312 240 312 205.2 312C171.6 312 136.8 312 103.2 312C68.4 312 34.8 312 16.8 312H0V24Z" fill="#F3AA60"/>
</svg>
